{
  "accessors": [
    {
      "bufferView": 2,
      "componentType": 5126,
      "count": 65532,
      "max": [
        8.71157455444336,
        5.582318305969238,
        3.6085612773895264
      ],
      "min": [
        -17.745586395263672,
        -15.56006145477295,
        0.252838134765625
      ],
      "type": "VEC3"
    },
    {
      "bufferView": 2,
      "byteOffset": 786384,
      "componentType": 5126,
      "count": 65532,
      "max": [
        0.9999945759773254,
        0.9998210668563843,
        0.9999995827674866
      ],
      "min": [
        -0.999575138092041,
        -0.9999479651451111,
        -0.9934859275817871
      ],
      "type": "VEC3"
    },
    {
      "bufferView": 1,
      "componentType": 5126,
      "count": 65532,
      "max": [
        0.9997000098228455,
        0.9909669756889343
      ],
      "min": [
        0.00024399999529123306,
        0.0002460000105202198
      ],
      "type": "VEC2"
    },
    {
      "bufferView": 0,
      "componentType": 5125,
      "count": 264858,
      "type": "SCALAR"
    },
    {
      "bufferView": 2,
      "byteOffset": 1572768,
      "componentType": 5126,
      "count": 65532,
      "max": [
        12.155783653259277,
        13.887953758239746,
        4.239863395690918
      ],
      "min": [
        -17.745586395263672,
        -17.956159591674805,
        -0.32416248321533203
      ],
      "type": "VEC3"
    },
    {
      "bufferView": 2,
      "byteOffset": 2359152,
      "componentType": 5126,
      "count": 65532,
      "max": [
        0.9999880790710449,
        0.9984763264656067,
        0.9999997019767761
      ],
      "min": [
        -0.9994881749153137,
        -1.0,
        -0.9969279766082764
      ],
      "type": "VEC3"
    },
    {
      "bufferView": 1,
      "byteOffset": 524256,
      "componentType": 5126,
      "count": 65532,
      "max": [
        0.9994410276412964,
        0.9909669756889343
      ],
      "min": [
        0.00024399999529123306,
        0.0002479999966453761
      ],
      "type": "VEC2"
    },
    {
      "bufferView": 0,
      "byteOffset": 1059432,
      "componentType": 5125,
      "count": 286425,
      "type": "SCALAR"
    },
    {
      "bufferView": 2,
      "byteOffset": 3145536,
      "componentType": 5126,
      "count": 65532,
      "max": [
        11.851274490356445,
        15.316559791564941,
        5.9963531494140625
      ],
      "min": [
        -16.948829650878906,
        -12.201424598693848,
        -0.32416248321533203
      ],
      "type": "VEC3"
    },
    {
      "bufferView": 2,
      "byteOffset": 3931920,
      "componentType": 5126,
      "count": 65532,
      "max": [
        0.9999919533729553,
        0.9981372356414795,
        0.9999997019767761
      ],
      "min": [
        -0.9998416900634766,
        -0.9999873638153076,
        -0.9999882578849792
      ],
      "type": "VEC3"
    },
    {
      "bufferView": 1,
      "byteOffset": 1048512,
      "componentType": 5126,
      "count": 65532,
      "max": [
        0.9997419714927673,
        0.9899899959564209
      ],
      "min": [
        0.00024399999529123306,
        0.0002880000101868063
      ],
      "type": "VEC2"
    },
    {
      "bufferView": 0,
      "byteOffset": 2205132,
      "componentType": 5125,
      "count": 229587,
      "type": "SCALAR"
    },
    {
      "bufferView": 2,
      "byteOffset": 4718304,
      "componentType": 5126,
      "count": 65532,
      "max": [
        10.679910659790039,
        7.2994585037231445,
        4.498716354370117
      ],
      "min": [
        -15.81944751739502,
        -14.189847946166992,
        0.1966390609741211
      ],
      "type": "VEC3"
    },
    {
      "bufferView": 2,
      "byteOffset": 5504688,
      "componentType": 5126,
      "count": 65532,
      "max": [
        0.9999749660491943,
        0.9942212700843811,
        0.9999993443489075
      ],
      "min": [
        -0.9990653991699219,
        -0.9999282956123352,
        -0.9984578490257263
      ],
      "type": "VEC3"
    },
    {
      "bufferView": 1,
      "byteOffset": 1572768,
      "componentType": 5126,
      "count": 65532,
      "max": [
        0.9997349977493286,
        0.9909669756889343
      ],
      "min": [
        0.00024399999529123306,
        0.0002730000123847276
      ],
      "type": "VEC2"
    },
    {
      "bufferView": 0,
      "byteOffset": 3123480,
      "componentType": 5125,
      "count": 266568,
      "type": "SCALAR"
    },
    {
      "bufferView": 2,
      "byteOffset": 6291072,
      "componentType": 5126,
      "count": 65533,
      "max": [
        0.4653949737548828,
        3.9295949935913086,
        4.665714740753174
      ],
      "min": [
        -14.350531578063965,
        -7.838846683502197,
        0.6360716819763184
      ],
      "type": "VEC3"
    },
    {
      "bufferView": 2,
      "byteOffset": 7077468,
      "componentType": 5126,
      "count": 65533,
      "max": [
        0.9999163746833801,
        0.9993140697479248,
        0.9999977946281433
      ],
      "min": [
        -0.9977996945381165,
        -0.9999480843544006,
        -0.9999575614929199
      ],
      "type": "VEC3"
    },
    {
      "bufferView": 1,
      "byteOffset": 2097024,
      "componentType": 5126,
      "count": 65533,
      "max": [
        0.9997109770774841,
        0.9948729872703552
      ],
      "min": [
        0.00024399999529123306,
        0.00029299999005161226
      ],
      "type": "VEC2"
    },
    {
      "bufferView": 0,
      "byteOffset": 4189752,
      "componentType": 5125,
      "count": 227340,
      "type": "SCALAR"
    },
    {
      "bufferView": 2,
      "byteOffset": 7863864,
      "componentType": 5126,
      "count": 65532,
      "max": [
        12.155027389526367,
        3.85451602935791,
        4.638376712799072
      ],
      "min": [
        -14.465607643127441,
        -15.68834114074707,
        0.23737764358520508
      ],
      "type": "VEC3"
    },
    {
      "bufferView": 2,
      "byteOffset": 8650248,
      "componentType": 5126,
      "count": 65532,
      "max": [
        0.9999521970748901,
        0.9981479644775391,
        0.9999984502792358
      ],
      "min": [
        -0.9996324777603149,
        -0.9999332427978516,
        -0.9999575614929199
      ],
      "type": "VEC3"
    },
    {
      "bufferView": 1,
      "byteOffset": 2621288,
      "componentType": 5126,
      "count": 65532,
      "max": [
        0.9997519850730896,
        0.9919430017471313
      ],
      "min": [
        0.00024399999529123306,
        0.0002579999854788184
      ],
      "type": "VEC2"
    },
    {
      "bufferView": 0,
      "byteOffset": 5099112,
      "componentType": 5125,
      "count": 210585,
      "type": "SCALAR"
    },
    {
      "bufferView": 2,
      "byteOffset": 9436632,
      "componentType": 5126,
      "count": 65532,
      "max": [
        4.879114627838135,
        15.11364459991455,
        5.645751953125
      ],
      "min": [
        -14.62940502166748,
        -5.872472286224365,
        0.49608755111694336
      ],
      "type": "VEC3"
    },
    {
      "bufferView": 2,
      "byteOffset": 10223016,
      "componentType": 5126,
      "count": 65532,
      "max": [
        0.9999804496765137,
        0.9999255537986755,
        0.9999997019767761
      ],
      "min": [
        -0.9999855756759644,
        -0.9999951124191284,
        -0.9995572566986084
      ],
      "type": "VEC3"
    },
    {
      "bufferView": 1,
      "byteOffset": 3145544,
      "componentType": 5126,
      "count": 65532,
      "max": [
        0.9997460246086121,
        0.9909669756889343
      ],
      "min": [
        0.00024399999529123306,
        0.00024399999529123306
      ],
      "type": "VEC2"
    },
    {
      "bufferView": 0,
      "byteOffset": 5941452,
      "componentType": 5125,
      "count": 239976,
      "type": "SCALAR"
    },
    {
      "bufferView": 2,
      "byteOffset": 11009400,
      "componentType": 5126,
      "count": 65532,
      "max": [
        4.877180099487305,
        13.540362358093262,
        5.145819187164307
      ],
      "min": [
        -14.309332847595215,
        3.526177406311035,
        1.5476644039154053
      ],
      "type": "VEC3"
    },
    {
      "bufferView": 2,
      "byteOffset": 11795784,
      "componentType": 5126,
      "count": 65532,
      "max": [
        0.999937891960144,
        0.9985700249671936,
        0.9999881982803345
      ],
      "min": [
        -0.9993975162506104,
        -0.9999922513961792,
        -0.9995206594467163
      ],
      "type": "VEC3"
    },
    {
      "bufferView": 1,
      "byteOffset": 3669800,
      "componentType": 5126,
      "count": 65532,
      "max": [
        0.9997509717941284,
        0.9929199814796448
      ],
      "min": [
        0.00024399999529123306,
        0.00034699999378062785
      ],
      "type": "VEC2"
    },
    {
      "bufferView": 0,
      "byteOffset": 6901356,
      "componentType": 5125,
      "count": 205419,
      "type": "SCALAR"
    },
    {
      "bufferView": 2,
      "byteOffset": 12582168,
      "componentType": 5126,
      "count": 56333,
      "max": [
        4.855392932891846,
        15.185210227966309,
        6.61959171295166
      ],
      "min": [
        -22.6524658203125,
        -8.653731346130371,
        1.5923407077789307
      ],
      "type": "VEC3"
    },
    {
      "bufferView": 2,
      "byteOffset": 13258164,
      "componentType": 5126,
      "count": 56333,
      "max": [
        0.9999729990959167,
        0.9997292757034302,
        0.9999997019767761
      ],
      "min": [
        -0.9994400143623352,
        -0.9999826550483704,
        -0.9999434947967529
      ],
      "type": "VEC3"
    },
    {
      "bufferView": 1,
      "byteOffset": 4194056,
      "componentType": 5126,
      "count": 56333,
      "max": [
        0.9997550249099731,
        0.9919430017471313
      ],
      "min": [
        0.00024399999529123306,
        0.00024399999529123306
      ],
      "type": "VEC2"
    },
    {
      "bufferView": 0,
      "byteOffset": 7723032,
      "componentType": 5125,
      "count": 173286,
      "type": "SCALAR"
    }
  ],
  "asset": {
    "extras": {
      "author": "John Toeppen (https://sketchfab.com/toeppen)",
      "license": "CC-BY-NC-SA-4.0 (http://creativecommons.org/licenses/by-nc-sa/4.0/)",
      "source": "https://sketchfab.com/3d-models/trump-village-0c3811c81e964bec9bd84d1e82d0c195",
      "title": "Trump Village"
    },
    "generator": "Sketchfab-12.68.0",
    "version": "2.0"
  },
  "bufferViews": [
    {
      "buffer": 0,
      "byteLength": 8416176,
      "name": "floatBufferViews",
      "target": 34963
    },
    {
      "buffer": 0,
      "byteLength": 4644720,
      "byteOffset": 8416176,
      "byteStride": 8,
      "name": "floatBufferViews",
      "target": 34962
    },
    {
      "buffer": 0,
      "byteLength": 13934160,
      "byteOffset": 13060896,
      "byteStride": 12,
      "name": "floatBufferViews",
      "target": 34962
    }
  ],
  "buffers": [
    {
      "byteLength": 26995056,
      "uri": "scene.bin"
    }
  ],
  "extensionsUsed": [
    "KHR_materials_unlit"
  ],
  "images": [
    {
      "uri": "textures/model_Material_u1_v1_baseColor.jpeg"
    }
  ],
  "materials": [
    {
      "doubleSided": true,
      "extensions": {
        "KHR_materials_unlit": {}
      },
      "name": "model_Material_u1_v1",
      "pbrMetallicRoughness": {
        "baseColorTexture": {
          "index": 0
        },
        "metallicFactor": 0.0
      }
    }
  ],
  "meshes": [
    {
      "name": "Object_0",
      "primitives": [
        {
          "attributes": {
            "NORMAL": 1,
            "POSITION": 0,
            "TEXCOORD_0": 2
          },
          "indices": 3,
          "material": 0,
          "mode": 4
        }
      ]
    },
    {
      "name": "Object_1",
      "primitives": [
        {
          "attributes": {
            "NORMAL": 5,
            "POSITION": 4,
            "TEXCOORD_0": 6
          },
          "indices": 7,
          "material": 0,
          "mode": 4
        }
      ]
    },
    {
      "name": "Object_2",
      "primitives": [
        {
          "attributes": {
            "NORMAL": 9,
            "POSITION": 8,
            "TEXCOORD_0": 10
          },
          "indices": 11,
          "material": 0,
          "mode": 4
        }
      ]
    },
    {
      "name": "Object_3",
      "primitives": [
        {
          "attributes": {
            "NORMAL": 13,
            "POSITION": 12,
            "TEXCOORD_0": 14
          },
          "indices": 15,
          "material": 0,
          "mode": 4
        }
      ]
    },
    {
      "name": "Object_4",
      "primitives": [
        {
          "attributes": {
            "NORMAL": 17,
            "POSITION": 16,
            "TEXCOORD_0": 18
          },
          "indices": 19,
          "material": 0,
          "mode": 4
        }
      ]
    },
    {
      "name": "Object_5",
      "primitives": [
        {
          "attributes": {
            "NORMAL": 21,
            "POSITION": 20,
            "TEXCOORD_0": 22
          },
          "indices": 23,
          "material": 0,
          "mode": 4
        }
      ]
    },
    {
      "name": "Object_6",
      "primitives": [
        {
          "attributes": {
            "NORMAL": 25,
            "POSITION": 24,
            "TEXCOORD_0": 26
          },
          "indices": 27,
          "material": 0,
          "mode": 4
        }
      ]
    },
    {
      "name": "Object_7",
      "primitives": [
        {
          "attributes": {
            "NORMAL": 29,
            "POSITION": 28,
            "TEXCOORD_0": 30
          },
          "indices": 31,
          "material": 0,
          "mode": 4
        }
      ]
    },
    {
      "name": "Object_8",
      "primitives": [
        {
          "attributes": {
            "NORMAL": 33,
            "POSITION": 32,
            "TEXCOORD_0": 34
          },
          "indices": 35,
          "material": 0,
          "mode": 4
        }
      ]
    }
  ],
  "nodes": [
    {
      "children": [
        1
      ],
      "matrix": [
        0.09029716551418154,
        0.013609544937789183,
        0.1133297686212007,
        0.0,
        0.1141216373207179,
        -0.013625461340765014,
        -0.08929184047912919,
        0.0,
        0.002260168666575621,
        0.14426212126177784,
        -0.019124971111348334,
        0.0,
        -1.0061500072479248,
        0.3948884606361378,
        5.01050329208374,
        1.0
      ],
      "name": "Sketchfab_model"
    },
    {
      "children": [
        2,
        3,
        4,
        5,
        6,
        7,
        8,
        9,
        10
      ],
      "name": "model.obj.cleaner.materialmerger.gles"
    },
    {
      "mesh": 0,
      "name": "Object_2"
    },
    {
      "mesh": 1,
      "name": "Object_3"
    },
    {
      "mesh": 2,
      "name": "Object_4"
    },
    {
      "mesh": 3,
      "name": "Object_5"
    },
    {
      "mesh": 4,
      "name": "Object_6"
    },
    {
      "mesh": 5,
      "name": "Object_7"
    },
    {
      "mesh": 6,
      "name": "Object_8"
    },
    {
      "mesh": 7,
      "name": "Object_9"
    },
    {
      "mesh": 8,
      "name": "Object_10"
    }
  ],
  "samplers": [
    {
      "magFilter": 9729,
      "minFilter": 9987,
      "wrapS": 10497,
      "wrapT": 10497
    }
  ],
  "scene": 0,
  "scenes": [
    {
      "name": "Sketchfab_Scene",
      "nodes": [
        0
      ]
    }
  ],
  "textures": [
    {
      "sampler": 0,
      "source": 0
    }
  ]
}
